# Blender 4.1.1
# www.blender.org
mtllib sm_curved_plane.mtl
o Plane
v -2.737482 0.000000 0.000000
v 2.737482 0.000000 0.000000
v -2.737482 3.341279 0.000000
v 2.737482 3.341279 0.000000
v 2.098201 0.000000 0.343636
v -2.098202 0.000000 0.343636
v 1.578701 0.000000 0.566331
v 0.980039 0.000000 0.721303
v 0.332233 0.000000 0.800781
v -0.332233 0.000000 0.800781
v -0.980039 0.000000 0.721303
v -1.578702 0.000000 0.566331
v -2.098201 3.341279 0.343636
v 2.098202 3.341279 0.343636
v -1.578701 3.341279 0.566331
v -0.980039 3.341279 0.721303
v -0.332233 3.341279 0.800781
v 0.332233 3.341279 0.800781
v 0.980039 3.341279 0.721303
v 1.578702 3.341279 0.566331
vn -0.4735 -0.0000 0.8808
vn 0.4735 -0.0000 0.8808
vn 0.4342 -0.0000 0.9008
vn -0.4342 -0.0000 0.9008
vn 0.3232 -0.0000 0.9463
vn 0.1866 -0.0000 0.9824
vn 0.0610 -0.0000 0.9981
vn -0.0610 -0.0000 0.9981
vn -0.1866 -0.0000 0.9824
vn -0.3232 -0.0000 0.9463
vt 0.000000 0.000000
vt 0.116764 0.000000
vt 0.116764 1.000000
vt 0.000000 1.000000
vt 0.883236 0.000000
vt 0.883236 1.000000
vt 0.788349 1.000000
vt 0.788349 0.000000
vt 0.679004 1.000000
vt 0.679004 0.000000
vt 0.560682 1.000000
vt 0.560682 0.000000
vt 0.439318 1.000000
vt 0.439318 0.000000
vt 0.320996 1.000000
vt 0.320996 0.000000
vt 0.211651 1.000000
vt 0.211651 0.000000
vt 1.000000 0.000000
vt 1.000000 1.000000
s 1
f 1/1/1 6/2/4 13/3/4 3/4/1
f 5/5/3 14/6/3 20/7/5 7/8/5
f 7/8/5 20/7/5 19/9/6 8/10/6
f 8/10/6 19/9/6 18/11/7 9/12/7
f 9/12/7 18/11/7 17/13/8 10/14/8
f 10/14/8 17/13/8 16/15/9 11/16/9
f 11/16/9 16/15/9 15/17/10 12/18/10
f 12/18/10 15/17/10 13/3/4 6/2/4
f 5/5/3 2/19/2 4/20/2 14/6/3
